<svg xmlns="http://www.w3.org/2000/svg" viewBox="0 0 200 200">
  <defs>
    <linearGradient id="futuristicBg" x1="0%" y1="0%" x2="100%" y2="100%">
      <stop offset="0%" stop-color="#0b0b3b" />
      <stop offset="50%" stop-color="#1a4779" />
      <stop offset="100%" stop-color="#2e86de" />
    </linearGradient>
    
    <linearGradient id="glassGradient" x1="0%" y1="0%" x2="0%" y2="100%">
      <stop offset="0%" stop-color="rgba(255,255,255,0.7)" />
      <stop offset="20%" stop-color="rgba(255,255,255,0.5)" />
      <stop offset="50%" stop-color="rgba(255,255,255,0.3)" />
      <stop offset="100%" stop-color="rgba(255,255,255,0.1)" />
    </linearGradient>
    
    <filter id="textGlow" x="-20%" y="-20%" width="140%" height="140%">
      <feGaussianBlur stdDeviation="4" result="blur" />
      <feComposite in="SourceGraphic" in2="blur" operator="over" />
    </filter>
    
    <filter id="glassReflection">
      <feGaussianBlur in="SourceAlpha" stdDeviation="2" result="blur" />
      <feSpecularLighting in="blur" surfaceScale="5" specularConstant="1" specularExponent="20" result="specular">
        <fePointLight x="50" y="50" z="100" />
      </feSpecularLighting>
      <feComposite in="specular" in2="SourceAlpha" operator="in" result="specular" />
      <feComposite in="SourceGraphic" in2="specular" operator="arithmetic" k1="0" k2="1" k3="1" k4="0" />
    </filter>
    
    <linearGradient id="textFill" x1="0%" y1="0%" x2="100%" y2="100%">
      <stop offset="0%" stop-color="#ffffff" />
      <stop offset="50%" stop-color="#f0f8ff" />
      <stop offset="100%" stop-color="#e6f0ff" />
    </linearGradient>
  </defs>

  <rect width="200" height="200" rx="20" fill="url(#futuristicBg)" />
  <g stroke="#00f2fe" stroke-width="0.5" opacity="0.2">
    <path d="M20,20 L180,20 M20,180 L180,180 M20,20 L20,180 M180,20 L180,180" />
    <path d="M50,50 L150,50 L150,150 L50,150 Z" />
    <path d="M20,50 L50,50 M20,150 L50,150 M150,50 L180,50 M150,150 L180,150" />
  </g>
  
  <rect x="25" y="25" width="150" height="150" rx="15" fill="rgba(255,255,255,0.05)" stroke="rgba(255,255,255,0.2)" stroke-width="1"/>
  <g filter="url(#textGlow)">
    <text x="70" y="110" font-family="Arial, sans-serif" font-size="100" fill="url(#textFill)" text-anchor="middle" dominant-baseline="middle">K</text>
    <text x="128" y="110" font-family="Arial, sans-serif" font-size="100" fill="url(#textFill)" text-anchor="middle" dominant-baseline="middle">S</text>
  </g>
  <rect x="15" y="15" width="170" height="170" rx="25" fill="none" stroke="rgba(0,242,254,0.5)" stroke-width="1" />
  <circle cx="15" cy="15" r="4" fill="#00f2fe" opacity="0.8" />
  <circle cx="185" cy="15" r="4" fill="#00f2fe" opacity="0.8" />
  <circle cx="15" cy="185" r="4" fill="#00f2fe" opacity="0.8" />
  <circle cx="185" cy="185" r="4" fill="#00f2fe" opacity="0.8" />
</svg>