<?xml version="1.0" encoding="utf-8"?><!-- Uploaded to: SVG Repo, www.svgrepo.com, Generator: SVG Repo Mixer Tools -->
<svg width="800px" height="800px" viewBox="0 0 64 64" fill="none" xmlns="http://www.w3.org/2000/svg">
<path fill-rule="evenodd" clip-rule="evenodd" d="M37.4207 34.5806L45.8002 31.1042L49.6888 39.5575L40.8327 43.1588L37.4207 34.5806Z" fill="#2A2941"/>
<path fill-rule="evenodd" clip-rule="evenodd" d="M47.2553 27.7781L45.8002 31.1043L49.7139 39.6076L50.9433 36.1313L47.2553 27.7781Z" fill="#2A2941"/>
<path fill-rule="evenodd" clip-rule="evenodd" d="M38.4995 34.1805L45.8002 31.1043L47.2553 27.678L39.3525 30.9042L38.4995 34.1805Z" fill="#2A2941" stroke="#2A2941" stroke-width="1.8587" stroke-linecap="round" stroke-linejoin="round"/>
<path fill-rule="evenodd" clip-rule="evenodd" d="M28.3388 47.5356C29.3674 51.2119 30.7975 53.1127 34.937 51.5371L32.4784 45.7349L28.3388 47.5356Z" fill="#2A2941"/>
<path fill-rule="evenodd" clip-rule="evenodd" d="M34.4102 15.1233C33.6826 15.2733 33.0052 15.5485 32.378 15.9236L32.6791 17.3491C32.1522 17.7493 31.7006 18.2495 31.3494 18.8247L29.9194 18.6496C29.5932 19.3249 29.3925 20.0502 29.2922 20.7754L30.5968 21.4757C30.5717 22.151 30.6971 22.8262 30.9229 23.4765L29.9194 24.5019C30.2204 25.1771 30.6469 25.8024 31.1487 26.3526L32.4784 25.7523C32.9801 26.2025 33.5823 26.5526 34.2345 26.7777L34.4102 28.2533C35.1377 28.4284 35.8653 28.4784 36.6179 28.4283L36.9692 27.0028C37.6215 26.8778 38.2487 26.6277 38.8257 26.2775L40.055 27.0528C40.632 26.6027 41.1338 26.0524 41.5101 25.4272L40.632 24.2017C40.9331 23.6015 41.1338 22.9513 41.184 22.276L42.5638 21.8008C42.5638 21.0505 42.4384 20.3003 42.1875 19.6L40.7324 19.55C40.4564 18.9247 40.055 18.3495 39.5783 17.8743L40.0299 16.4738C39.4529 15.9986 38.8006 15.6235 38.0981 15.3484L37.1699 16.4738C36.5176 16.2987 35.8402 16.2487 35.1628 16.3237L34.4102 15.1233ZM34.4102 18.1494C35.3635 17.7993 36.3921 17.8493 37.3204 18.2495C38.2487 18.6496 38.9762 19.4249 39.3275 20.3503C39.5282 20.8005 39.6285 21.3006 39.6285 21.8008C39.6285 22.301 39.5282 22.8012 39.3525 23.2514C39.1518 23.7266 38.8759 24.1267 38.5246 24.5019C38.1734 24.852 37.7469 25.1271 37.2953 25.3272C36.342 25.6773 35.2883 25.6273 34.3851 25.2271C33.4568 24.802 32.7293 24.0517 32.378 23.1263C32.1773 22.6512 32.077 22.151 32.1021 21.6508C32.1021 21.1506 32.2024 20.6504 32.4031 20.1752C32.6038 19.7 32.9049 19.2999 33.2561 18.9497C33.6324 18.5996 34.0589 18.3245 34.5356 18.1494H34.4102Z" fill="#2A2941"/>
<path fill-rule="evenodd" clip-rule="evenodd" d="M40.4062 39.6826C39.8041 39.8077 39.2522 40.0327 38.7253 40.3579L38.9511 41.5333C38.4995 41.8835 38.1232 42.2836 37.8472 42.7588L36.6179 42.6337C36.3419 43.1839 36.1663 43.7592 36.0911 44.3594L37.1448 44.9096C37.1197 45.4598 37.22 46.01 37.3957 46.5102L36.5677 47.3605C36.8437 47.9107 37.1949 48.4109 37.5964 48.8361L38.7002 48.3359C39.1267 48.686 39.6034 48.9611 40.1303 49.1362L40.2557 50.3617C40.8578 50.5117 41.4599 50.5618 42.0621 50.4867L42.3631 49.3363C42.9151 49.2363 43.4168 49.0362 43.8684 48.7361L44.897 49.3613C45.3737 48.9862 45.8002 48.561 46.1263 48.0358L45.3988 47.0854C45.6497 46.6103 45.8253 46.06 45.8755 45.5348L47.0044 45.1347C47.0044 44.5345 46.9292 43.9342 46.7285 43.359H45.4991C45.2733 42.8588 44.9472 42.4087 44.5709 42.0085L44.9472 40.8831C44.4705 40.5079 43.9437 40.2078 43.3666 39.9827L42.614 40.8831C42.0871 40.733 41.5352 40.708 40.9833 40.783L40.331 39.7827L40.4062 39.6826ZM40.4062 42.1586C41.184 41.8584 42.037 41.8584 42.7896 42.1836C43.5423 42.5087 44.1444 43.1089 44.4705 43.8842C44.6211 44.2594 44.6963 44.6595 44.6963 45.0847C44.6963 45.4848 44.596 45.885 44.4454 46.2601C44.2949 46.6353 44.044 46.9854 43.7681 47.2605C43.467 47.5356 43.1409 47.7607 42.7645 47.9107C41.9868 48.2109 41.1338 48.2109 40.3811 47.8857C39.6285 47.5606 39.0264 46.9604 38.7002 46.1851C38.5497 45.8099 38.4744 45.4098 38.4744 44.9846C38.4744 44.5845 38.5748 44.1593 38.7253 43.7842C38.8759 43.409 39.1267 43.0589 39.4278 42.7838C39.6787 42.5087 40.0299 42.2836 40.4062 42.1586Z" fill="#2A2941"/>
<path fill-rule="evenodd" clip-rule="evenodd" d="M27.1848 40.4078L27.26 23.7265L36.0158 23.6265L39.9045 27.553L39.779 40.1327L27.1848 40.4078Z" fill="#2A2941"/>
<path fill-rule="evenodd" clip-rule="evenodd" d="M35.9155 27.3778V23.1262L40.1805 27.4279L35.9155 27.3778Z" fill="#2A2941" stroke="#2A2941" stroke-width="1.8587" stroke-linecap="round" stroke-linejoin="round"/>
<path fill-rule="evenodd" clip-rule="evenodd" d="M22.1671 24.3269C12.1318 28.0033 13.2357 42.7589 25.5289 45.2098C25.5289 45.2098 27.1346 47.3357 28.0879 47.5857C29.0413 47.8358 31.1989 46.7104 31.1989 46.7104L22.1671 24.3269Z" fill="#2A2941"/>
<path fill-rule="evenodd" clip-rule="evenodd" d="M38.8006 32.5049L47.1801 29.0286L51.0687 37.4818L42.2126 41.0831L38.8006 32.5049Z" fill="#32EDBB"/>
<path fill-rule="evenodd" clip-rule="evenodd" d="M38.5999 32.0297C38.4744 32.0798 38.3741 32.1798 38.3239 32.3298C38.2737 32.4549 38.2737 32.605 38.3239 32.73L41.7359 41.3333C41.761 41.4083 41.7861 41.4583 41.8362 41.5083C41.8864 41.5584 41.9366 41.6084 42.0119 41.6334C42.0871 41.6584 42.1373 41.6834 42.2126 41.6834C42.2878 41.6834 42.3631 41.6584 42.4133 41.6334L51.2694 38.032C51.3948 37.982 51.4952 37.882 51.5705 37.7569C51.6206 37.6319 51.6206 37.4818 51.5705 37.3318L47.6818 28.8785C47.6316 28.7535 47.5313 28.6535 47.4058 28.6034C47.2804 28.5534 47.1298 28.5534 47.0044 28.6034L38.5999 32.0798V32.0297ZM39.4779 32.78L46.879 29.6788L50.3411 37.1817L42.4885 40.3829L39.4529 32.755L39.4779 32.78Z" fill="#2A2941"/>
<path fill-rule="evenodd" clip-rule="evenodd" d="M48.6101 25.7024L47.1801 29.0287L51.0938 37.5319L52.3231 34.0556L48.6101 25.7024Z" fill="#FEC34E"/>
<path fill-rule="evenodd" clip-rule="evenodd" d="M49.1118 25.4522C49.0617 25.3522 49.0115 25.2771 48.9111 25.2271C48.8359 25.1771 48.7355 25.1521 48.6352 25.1521C48.5348 25.1521 48.4345 25.1771 48.3341 25.2271C48.2588 25.2771 48.1836 25.3772 48.1334 25.4522L46.7034 28.7785C46.6783 28.8535 46.6532 28.9285 46.6532 29.0036C46.6532 29.0786 46.6783 29.1536 46.7034 29.2287L50.6171 37.7319C50.6673 37.8319 50.7426 37.907 50.8178 37.957C50.8931 38.007 50.9935 38.032 51.1189 38.032C51.2193 38.032 51.3196 37.982 51.42 37.932C51.4952 37.8819 51.5705 37.7819 51.6207 37.6819L52.9252 34.2055C52.9503 34.1305 52.9754 34.0805 52.9754 34.0055C52.9754 33.9304 52.9503 33.8554 52.9252 33.8054L49.1118 25.4522ZM48.6352 26.9778L51.8214 34.0555L51.0436 36.1563L47.7571 29.0036L48.6352 26.9778Z" fill="#2A2941"/>
<path fill-rule="evenodd" clip-rule="evenodd" d="M39.8794 32.1048L47.1801 29.0286L48.6101 25.6023L40.7324 28.8285L39.8794 32.1048Z" fill="#A694FE"/>
<path fill-rule="evenodd" clip-rule="evenodd" d="M39.4278 31.9546C39.4027 32.0547 39.4027 32.1547 39.4278 32.2297C39.4529 32.3298 39.5031 32.4048 39.5783 32.4798C39.6536 32.5549 39.754 32.5799 39.8292 32.6049C39.9296 32.6299 40.0299 32.6049 40.1052 32.5799L47.4059 29.5037C47.456 29.4787 47.5313 29.4287 47.5815 29.4037C47.6317 29.3786 47.6567 29.3036 47.6818 29.2286L49.1369 25.8023C49.1871 25.7022 49.1871 25.6022 49.162 25.5022C49.1369 25.4021 49.0868 25.3021 49.0115 25.2271C48.9362 25.152 48.8359 25.102 48.7355 25.077C48.6352 25.052 48.5348 25.077 48.4345 25.102L40.5568 28.3282C40.4815 28.3533 40.4063 28.4033 40.3561 28.4533C40.3059 28.5033 40.2557 28.5783 40.2306 28.6534L39.4278 31.9546ZM40.7324 31.2043L41.2593 29.2036L47.732 26.5526L46.879 28.6284L40.7073 31.2043H40.7324Z" fill="#2A2941"/>
<path fill-rule="evenodd" clip-rule="evenodd" d="M30.5215 46.3601C31.4247 49.6364 32.7292 51.262 36.3419 49.8865L34.2094 44.7595L30.5215 46.3601Z" fill="#A694FE"/>
<path fill-rule="evenodd" clip-rule="evenodd" d="M34.7864 43.209L29.1416 45.6599L29.4176 46.6103C30.095 49.0112 31.0483 50.6118 32.5787 51.212C33.9585 51.6372 35.4638 51.5372 36.7684 50.9119L37.8723 50.4867L34.7864 43.209ZM30.5215 46.3602C31.4246 49.6364 32.7292 51.262 36.3419 49.8865L34.2094 44.7596L30.5215 46.3602Z" fill="#2A2941"/>
<path fill-rule="evenodd" clip-rule="evenodd" d="M35.3886 13.3477C34.661 13.4977 33.9836 13.7728 33.3564 14.148L33.6575 15.5985C33.1306 15.9987 32.679 16.4989 32.3278 17.0741L30.8978 16.899C30.5716 17.5743 30.3709 18.2745 30.2706 19.0248L31.5752 19.7251C31.5501 20.4003 31.6755 21.1006 31.9264 21.7258L30.8978 22.7762C31.2239 23.4515 31.6253 24.0767 32.1271 24.6269L33.4568 24.0517C33.9836 24.5019 34.5607 24.827 35.2129 25.0521L35.3886 26.5277C36.1161 26.7027 36.8437 26.7528 37.5963 26.7027L37.9476 25.2772C38.5999 25.1521 39.2271 24.902 39.8041 24.5519L41.0334 25.3272C41.6104 24.877 42.1122 24.3268 42.4885 23.7016L41.6104 22.4761C41.9115 21.8759 42.1122 21.2257 42.1624 20.5504L43.5422 20.0752C43.5422 19.3249 43.4168 18.5746 43.1659 17.8744L41.7108 17.8244C41.4348 17.1991 41.0334 16.6239 40.5567 16.1487L41.0083 14.7482C40.4313 14.273 39.779 13.8979 39.0765 13.6228L38.1483 14.7482C37.496 14.5731 36.8186 14.5231 36.1663 14.5981L35.3635 13.3727L35.3886 13.3477ZM35.3886 16.3738C36.3419 16.0237 37.3705 16.0737 38.2988 16.4738C39.2271 16.874 39.9546 17.6493 40.3058 18.5746C40.5066 19.0248 40.6069 19.525 40.6069 20.0252C40.6069 20.5254 40.5066 21.0256 40.3309 21.4757C40.1302 21.9509 39.8543 22.3511 39.503 22.7262C39.1518 23.0764 38.7253 23.3515 38.2737 23.5515C37.3204 23.9017 36.2917 23.8517 35.3635 23.4515C34.4352 23.0513 33.7077 22.2761 33.3564 21.3507C33.1557 20.9005 33.0554 20.4003 33.0554 19.9001C33.0554 19.4 33.1557 18.8998 33.3313 18.4246C33.532 17.9494 33.808 17.5493 34.1592 17.1741C34.4854 16.849 34.9119 16.5489 35.3886 16.3738Z" fill="#FEC34E"/>
<path fill-rule="evenodd" clip-rule="evenodd" d="M36.367 12.7224L35.9405 12.0471L35.1628 12.2222C34.3098 12.3973 33.507 12.7224 32.7543 13.1725L32.0518 13.5977L32.378 15.1733C32.1522 15.3984 31.9515 15.6235 31.7508 15.8736L30.1702 15.6985L29.819 16.4238C29.4427 17.1991 29.2169 18.0244 29.1165 18.8747L29.0413 19.65L30.4462 20.4003C30.4713 20.7254 30.5215 21.0505 30.5967 21.3757L29.4928 22.5011L29.8441 23.2014C30.2204 24.0017 30.7222 24.7269 31.3243 25.3522L31.8762 25.9274L33.2561 25.3772C33.532 25.5523 33.808 25.7273 34.1091 25.8774L34.3098 27.453L35.0624 27.628C35.9154 27.8531 36.7935 27.9031 37.6465 27.8281L38.4744 27.7531L38.8507 26.2025C39.1518 26.1025 39.4278 26.0024 39.7037 25.8774L41.0585 26.7277L41.7108 26.2275C42.3882 25.6773 42.9652 25.0271 43.4419 24.3018L43.8684 23.6265L42.915 22.326C43.0405 22.0259 43.1157 21.7258 43.191 21.4007L44.6712 20.8755V20.0752C44.6712 19.1998 44.5207 18.3245 44.2447 17.4992L43.9938 16.7489L42.4133 16.6989C42.2377 16.4238 42.062 16.1487 41.8362 15.8736L42.338 14.373L41.7359 13.8728C41.0585 13.3226 40.3059 12.8724 39.4779 12.5473L38.7253 12.2472L37.7218 13.4727C37.3956 13.4226 37.0946 13.3976 36.7684 13.3976L36.3419 12.6974L36.367 12.7224ZM35.3886 13.3476C34.661 13.4977 33.9836 13.7728 33.3564 14.1479L33.6575 15.5985C33.1306 15.9986 32.679 16.4988 32.3278 17.074L30.8978 16.899C30.5716 17.5742 30.3709 18.2745 30.2706 19.0248L31.5752 19.725C31.5501 20.4003 31.6755 21.1006 31.9264 21.7258L30.8978 22.7762C31.2239 23.4515 31.6253 24.0767 32.1271 24.6269L33.4568 24.0517C33.9836 24.5019 34.5607 24.827 35.213 25.0521L35.3886 26.5276C36.1161 26.7027 36.8437 26.7527 37.5963 26.7027L37.9476 25.2771C38.5999 25.1521 39.2271 24.902 39.8041 24.5519L41.0334 25.3272C41.6104 24.877 42.1122 24.3268 42.4885 23.7016L41.6104 22.4761C41.9115 21.8759 42.1122 21.2256 42.1624 20.5504L43.5422 20.0752C43.5422 19.3249 43.4168 18.5746 43.1659 17.8743L41.7108 17.8243C41.4348 17.1991 41.0334 16.6239 40.5567 16.1487L41.0083 14.7481C40.4313 14.273 39.779 13.8978 39.0765 13.6227L38.1483 14.7481C37.496 14.5731 36.8186 14.5231 36.1663 14.5981L35.3635 13.3726L35.3886 13.3476ZM35.3886 16.3738C36.3419 16.0236 37.3705 16.0737 38.2988 16.4738C39.2271 16.874 39.9546 17.6492 40.3059 18.5746C40.5066 19.0248 40.6069 19.525 40.6069 20.0252C40.6069 20.5253 40.5066 21.0255 40.3309 21.4757C40.1302 21.9509 39.8543 22.351 39.503 22.7262C39.1518 23.0763 38.7253 23.3514 38.2737 23.5515C37.3204 23.9016 36.2917 23.8516 35.3635 23.4515C34.4352 23.0513 33.7077 22.276 33.3564 21.3507C33.1557 20.9005 33.0554 20.4003 33.0554 19.9001C33.0554 19.3999 33.1557 18.8997 33.3313 18.4245C33.532 17.9494 33.808 17.5492 34.1593 17.1741C34.4854 16.8489 34.9119 16.5488 35.3886 16.3738ZM35.8151 17.4242C36.4925 17.1741 37.22 17.1991 37.8723 17.4992C38.5246 17.7993 39.0264 18.3245 39.2772 18.9998C39.4278 19.3249 39.503 19.675 39.503 20.0252C39.503 20.3753 39.4529 20.7254 39.3023 21.0505C39.1769 21.3757 38.9762 21.6758 38.7253 21.9259C38.4744 22.176 38.1734 22.376 37.8472 22.5011C37.1698 22.7512 36.4423 22.7262 35.79 22.4261C35.1377 22.126 34.6359 21.6008 34.385 20.9255C34.2596 20.6004 34.1843 20.2502 34.1593 19.9001C34.1593 19.55 34.2345 19.1998 34.36 18.8747C34.4854 18.5496 34.6861 18.2495 34.937 17.9994C35.1879 17.7743 35.4889 17.5742 35.8151 17.4242Z" fill="#2A2941"/>
<path fill-rule="evenodd" clip-rule="evenodd" d="M41.6355 38.0071C41.0334 38.1321 40.4564 38.3572 39.9546 38.6823L40.1804 39.8578C39.7288 40.1829 39.3525 40.6081 39.0765 41.0833L37.8472 40.9582C37.5963 41.5084 37.4207 42.0836 37.3455 42.6839L38.3992 43.2341C38.3741 43.7843 38.4744 44.3345 38.65 44.8347L37.8221 45.66C38.073 46.2102 38.4243 46.7104 38.8508 47.1356L39.9295 46.6604C40.356 47.0105 40.8327 47.2856 41.3596 47.4607L41.5101 48.6861C42.0871 48.8362 42.7143 48.8612 43.3165 48.8112L43.6175 47.6608C44.1694 47.5607 44.6712 47.3606 45.1479 47.0605L46.1514 47.6858C46.6281 47.3106 47.0546 46.8604 47.3807 46.3603L46.6783 45.4099C46.9292 44.9097 47.0797 44.3845 47.1549 43.8593L48.2839 43.4592C48.2839 42.8589 48.1836 42.2587 48.0079 41.6835H46.7786C46.5528 41.1833 46.2267 40.7331 45.8504 40.333L46.2267 39.2075C45.75 38.8324 45.2232 38.5323 44.6461 38.3072L43.8935 39.2075C43.3666 39.0575 42.8147 39.0325 42.2627 39.0825L41.6105 38.0821L41.6355 38.0071ZM41.6355 40.483C42.4133 40.1829 43.2663 40.1829 44.0189 40.533C44.7716 40.8582 45.3737 41.4834 45.6747 42.2337C45.8253 42.6088 45.9005 43.009 45.9005 43.4341C45.9005 43.8343 45.8253 44.2344 45.6497 44.6096C45.4991 44.9847 45.2482 45.3349 44.9723 45.61C44.6712 45.8851 44.3451 46.1102 43.9437 46.2602C43.1659 46.5603 42.3129 46.5603 41.5603 46.2102C40.8076 45.8851 40.2055 45.2598 39.9045 44.5096C39.7539 44.1344 39.6787 43.7343 39.6787 43.3091C39.6787 42.9089 39.7539 42.4838 39.9295 42.1086C40.0801 41.7335 40.331 41.3834 40.632 41.1083C40.9331 40.8332 41.2843 40.6081 41.6355 40.483Z" fill="#FEC34E"/>
<path fill-rule="evenodd" clip-rule="evenodd" d="M42.614 37.3818L42.1875 36.7065L41.4098 36.8566C40.7073 37.0317 40.055 37.3068 39.4278 37.6569L38.7253 38.0821L38.9762 39.3826C38.8508 39.5076 38.7253 39.6577 38.5999 39.8077L37.2702 39.6827L36.919 40.3829C36.5928 41.0332 36.367 41.7335 36.2918 42.4837L36.1914 43.284L37.4207 43.9093C37.4458 44.1094 37.4709 44.2844 37.496 44.4845L36.5677 45.4099L36.919 46.1351C37.22 46.8104 37.6465 47.4106 38.1483 47.9358L38.7002 48.511L39.9295 47.9608C40.0801 48.0609 40.2557 48.1609 40.4313 48.2609L40.5818 49.5614L41.3596 49.7615C42.062 49.9366 42.8147 49.9866 43.5422 49.9116L44.3451 49.8365L44.6712 48.6111L45.2232 48.411L46.3521 49.1113L47.0044 48.6111C47.5814 48.1609 48.0832 47.6107 48.4846 47.0105L48.9111 46.3352L48.1083 45.2848C48.1836 45.1097 48.2337 44.9347 48.2588 44.7346L49.4882 44.2844V43.4841C49.4882 42.7588 49.3878 42.0336 49.1369 41.3333L48.886 40.583H47.5564L47.2302 40.1078L47.6567 38.8824L47.0295 38.3822C46.4525 37.932 45.8002 37.5569 45.1228 37.3068L44.3702 37.0317L43.5172 38.032H42.915L42.6391 37.5819L42.614 37.3818ZM41.6355 38.007C41.0334 38.1321 40.4564 38.3572 39.9546 38.6823L40.1804 39.8577C39.7288 40.1829 39.3525 40.608 39.0765 41.0832L37.8472 40.9582C37.5963 41.5084 37.4207 42.0836 37.3455 42.6838L38.3992 43.234C38.3741 43.7842 38.4744 44.3344 38.6501 44.8346L37.8221 45.6599C38.073 46.2102 38.4243 46.7103 38.8508 47.1355L39.9295 46.6603C40.356 47.0105 40.8327 47.2856 41.3596 47.4606L41.5101 48.6861C42.0871 48.8362 42.7143 48.8612 43.3165 48.8111L43.6175 47.6607C44.1695 47.5607 44.6712 47.3606 45.1479 47.0605L46.1514 47.6857C46.6281 47.3106 47.0546 46.8604 47.3807 46.3602L46.6783 45.4099C46.9292 44.9097 47.0797 44.3845 47.1549 43.8593L48.2839 43.4591C48.2839 42.8589 48.1836 42.2587 48.0079 41.6834H46.7786C46.5528 41.1832 46.2267 40.7331 45.8504 40.3329L46.2267 39.2075C45.75 38.8324 45.2232 38.5322 44.6461 38.3072L43.8935 39.2075C43.3666 39.0574 42.8147 39.0324 42.2627 39.0824L41.6105 38.0821L41.6355 38.007ZM41.6355 40.458C42.4133 40.1579 43.2663 40.1579 44.0189 40.508C44.7716 40.8331 45.3737 41.4583 45.6747 42.2086C45.8253 42.5838 45.9005 42.9839 45.9005 43.4091C45.9005 43.8092 45.8253 44.2094 45.6497 44.5845C45.4991 44.9597 45.2482 45.3098 44.9723 45.5849C44.6712 45.86 44.3451 46.0851 43.9437 46.2352C43.1659 46.5353 42.3129 46.5353 41.5603 46.1851C40.8076 45.86 40.2055 45.2348 39.9045 44.4845C39.7539 44.1094 39.6787 43.7092 39.6787 43.284C39.6787 42.8839 39.7539 42.4587 39.9295 42.0836C40.0801 41.7084 40.331 41.3583 40.632 41.0832C40.9331 40.8081 41.2843 40.583 41.6355 40.458ZM42.062 41.5334C42.5387 41.3333 43.0907 41.3583 43.5673 41.5584C44.044 41.7585 44.4203 42.1586 44.621 42.6338C44.7214 42.8589 44.7716 43.134 44.7716 43.3841C44.7716 43.6342 44.7214 43.8843 44.621 44.1344C44.5207 44.3595 44.3702 44.5845 44.1945 44.7596C44.0189 44.9347 43.7931 45.0847 43.5422 45.1598C43.0656 45.3598 42.5136 45.3348 42.037 45.1347C41.5603 44.9347 41.184 44.5345 40.9833 44.0593C40.8829 43.8343 40.8327 43.5591 40.8327 43.3091C40.8327 43.059 40.8829 42.8089 40.9833 42.5588C41.0836 42.3337 41.2341 42.1086 41.4098 41.9335C41.6105 41.7835 41.8362 41.6334 42.062 41.5334Z" fill="#2A2941"/>
<path fill-rule="evenodd" clip-rule="evenodd" d="M28.5646 38.3071L28.6148 21.6008L37.3705 21.5007L41.2592 25.4272L41.1338 38.007L28.5646 38.3071Z" fill="white"/>
<path fill-rule="evenodd" clip-rule="evenodd" d="M27.561 20.5752L27.4858 39.3824L42.1624 39.0323L42.2878 25.0019L37.797 20.4502L27.561 20.5752ZM28.5395 38.307L28.6147 21.6006L37.3705 21.5006L41.2592 25.4271L41.1338 38.0069L28.5395 38.307Z" fill="#2A2941"/>
<path fill-rule="evenodd" clip-rule="evenodd" d="M36.7433 25.2772C36.7433 25.3522 36.7433 25.4022 36.7684 25.4773C36.7935 25.5523 36.8437 25.6023 36.8688 25.6523C36.919 25.7024 36.9691 25.7524 37.0444 25.7774C37.1197 25.8024 37.1698 25.8274 37.2451 25.8274L41.5352 25.9024C41.6355 25.9024 41.7359 25.8774 41.8363 25.8274C41.9366 25.7774 41.9868 25.6773 42.037 25.6023C42.0871 25.5023 42.0871 25.4022 42.062 25.3022C42.037 25.2022 41.9868 25.1021 41.9115 25.0271L37.6465 20.7005C37.5713 20.6254 37.4709 20.5754 37.3706 20.5504C37.2702 20.5254 37.1698 20.5504 37.0695 20.5754C36.9691 20.6254 36.8939 20.6754 36.8437 20.7755C36.7935 20.8505 36.7433 20.9506 36.7433 21.0756V25.2772ZM37.8221 24.752V22.3011L40.2808 24.752H37.8221Z" fill="#2A2941"/>
<path fill-rule="evenodd" clip-rule="evenodd" d="M24.3749 21.9758C14.3396 25.6522 15.4435 40.4078 27.7367 42.8587C27.7367 42.8587 29.3424 44.9845 30.2957 45.2346C31.2491 45.4847 33.4066 44.3593 33.4066 44.3593L24.3749 21.9258V21.9758Z" fill="#FEC34E"/>
<path fill-rule="evenodd" clip-rule="evenodd" d="M35.6144 45.2347L25.3533 19.75L23.7476 20.3502C22.2173 20.9004 20.8123 21.7508 19.6081 22.8512C18.4039 23.9516 17.4505 25.2771 16.7982 26.7777C16.1459 28.2532 15.7947 29.8538 15.7696 31.4795C15.7445 33.1051 16.0707 34.7057 16.6979 36.2063C17.5509 38.3071 18.9056 40.1578 20.6618 41.6083C22.418 43.0589 24.5003 44.0592 26.7331 44.5094C27.1596 45.0346 27.6363 45.5348 28.1381 45.985C28.6148 46.4351 29.1918 46.7853 29.819 46.9854C30.4713 47.1104 31.1487 47.0854 31.801 46.9103C32.6289 46.6602 33.4317 46.3601 34.2094 45.985L35.6144 45.2347ZM24.3748 21.9758C14.3396 25.6522 15.4434 40.4079 27.7367 42.8588C27.7367 42.8588 29.3423 44.9846 30.2957 45.2347C31.249 45.4848 33.4066 44.3594 33.4066 44.3594L24.3748 21.9258V21.9758Z" fill="#2A2941"/>
<path fill-rule="evenodd" clip-rule="evenodd" d="M15.5439 26.3525L12.6587 25.3522C12.5834 25.3271 12.5333 25.3271 12.458 25.3271C12.3827 25.3271 12.3326 25.3522 12.2573 25.3772C12.182 25.4022 12.1319 25.4522 12.0817 25.5022C12.0315 25.5522 12.0064 25.6023 11.9813 25.6773C11.9562 25.7523 11.9562 25.8023 11.9562 25.8774C11.9562 25.9524 11.9813 26.0024 12.0064 26.0774C12.0315 26.1275 12.0817 26.2025 12.1319 26.2275C12.182 26.2775 12.2322 26.3025 12.3075 26.3275L15.1926 27.3279C15.3181 27.3779 15.4686 27.3779 15.594 27.3029C15.7195 27.2529 15.8198 27.1278 15.87 27.0028C15.9202 26.8777 15.9202 26.7277 15.8449 26.6026C15.7947 26.5026 15.6693 26.4026 15.5439 26.3525Z" fill="#2A2941"/>
<path fill-rule="evenodd" clip-rule="evenodd" d="M14.1389 38.0069L11.3541 39.2324C11.2287 39.2824 11.1283 39.4074 11.0781 39.5325C11.0279 39.6575 11.0279 39.8076 11.1032 39.9326C11.1283 39.9827 11.1785 40.0577 11.2287 40.1077C11.2788 40.1577 11.329 40.1827 11.4043 40.2078C11.4795 40.2328 11.5297 40.2328 11.605 40.2328C11.6802 40.2328 11.7304 40.2078 11.8057 40.1827L14.5905 38.9573C14.6657 38.9323 14.7159 38.9073 14.7912 38.8572C14.8414 38.8072 14.8915 38.7572 14.9166 38.6822C14.9417 38.6071 14.9668 38.5321 14.9668 38.4571C14.9668 38.3821 14.9417 38.307 14.9166 38.232C14.8915 38.157 14.8414 38.107 14.7912 38.0569C14.741 38.0069 14.6657 37.9819 14.5905 37.9569C14.5152 37.9319 14.4399 37.9319 14.3647 37.9319C14.2894 37.9569 14.2141 37.9819 14.1389 38.0069Z" fill="#2A2941"/>
<path fill-rule="evenodd" clip-rule="evenodd" d="M22.7943 46.0601L21.565 48.8612C21.5399 48.9362 21.5148 48.9862 21.5148 49.0613C21.5148 49.1363 21.5148 49.2113 21.5399 49.2613C21.565 49.3364 21.6152 49.3864 21.6403 49.4364C21.6904 49.4864 21.7406 49.5364 21.8159 49.5615C21.8912 49.5865 21.9413 49.6115 22.0166 49.6115C22.0919 49.6115 22.1671 49.6115 22.2173 49.5865C22.2926 49.5615 22.3427 49.5114 22.3929 49.4864C22.4431 49.4364 22.4933 49.3864 22.5184 49.3114L23.7477 46.5103C23.7979 46.3852 23.7979 46.2352 23.7477 46.1101C23.6975 45.9851 23.5972 45.8851 23.4717 45.81C23.3964 45.785 23.3463 45.76 23.271 45.76C23.1957 45.76 23.1205 45.76 23.0703 45.785C22.995 45.81 22.9449 45.86 22.8947 45.8851C22.8696 45.9351 22.8194 45.9851 22.7943 46.0601Z" fill="#2A2941"/>
<path fill-rule="evenodd" clip-rule="evenodd" d="M21.9162 16.6238L23.1455 19.4249C23.1957 19.5499 23.296 19.6499 23.4215 19.7C23.5469 19.75 23.6975 19.75 23.8229 19.7C23.9483 19.6499 24.0487 19.5499 24.0989 19.4249C24.149 19.2998 24.149 19.1498 24.0989 19.0247L22.8695 16.2236C22.8194 16.0986 22.6939 16.0236 22.5685 15.9735C22.443 15.9235 22.3176 15.9235 22.1922 15.9735C22.0667 16.0236 21.9915 16.1236 21.9413 16.2487C21.866 16.3737 21.866 16.4987 21.9162 16.6238Z" fill="#2A2941"/>
</svg>