<?xml version="1.0" encoding="iso-8859-1"?>
<!-- Uploaded to: SVG Repo, www.svgrepo.com, Generator: SVG Repo Mixer Tools -->
<svg fill="#000000" height="800px" width="800px" version="1.1" id="Capa_1" xmlns="http://www.w3.org/2000/svg" xmlns:xlink="http://www.w3.org/1999/xlink" 
	 viewBox="0 0 290.063 290.063" xml:space="preserve">
<g>
	<path id="path35563" d="M242.669,0.001c-1.827-0.028-3.524,0.943-4.426,2.533l-8.051,13.734c-2.41-0.78-4.976-1.205-7.637-1.205
		c-13.748,0-25,11.252-25,25c0,7.189,3.081,13.692,7.982,18.264l-32.469,55.385c-4.681-2.33-9.948-3.648-15.514-3.648
		c-17.393,0-31.896,12.815-34.559,29.48l-35.471-5.602c-0.592-13.233-11.599-23.879-24.971-23.879c-13.748,0-25,11.252-25,25
		c0,6.139,2.249,11.776,5.957,16.141l-39.889,50.77c-1.74,2.145-1.412,5.294,0.733,7.034s5.294,1.412,7.034-0.733
		c0.033-0.04,0.065-0.081,0.097-0.123l39.879-50.756c3.372,1.703,7.173,2.668,11.189,2.668c10.671,0,19.835-6.781,23.404-16.244
		l36.906,5.826c2.259,17.119,16.972,30.418,34.689,30.418c19.271,0,35-15.729,35-35c0-10.113-4.336-19.246-11.238-25.646
		l32.74-55.852c2.656,0.968,5.518,1.498,8.498,1.498c13.748,0,25-11.252,25-25c0-7.514-3.367-14.276-8.66-18.869L246.87,7.59
		c1.43-2.362,0.675-5.437-1.688-6.867C244.423,0.263,243.556,0.014,242.669,0.001z M222.555,25.063c2.371,0,4.596,0.553,6.58,1.514
		c0.436,0.346,0.926,0.618,1.451,0.803c4.197,2.646,6.969,7.308,6.969,12.684c0,8.343-6.657,15-15,15
		c-2.572,0-4.982-0.636-7.088-1.756c-0.453-0.411-0.977-0.735-1.547-0.957c-3.857-2.702-6.365-7.173-6.365-12.287
		C207.555,31.72,214.212,25.063,222.555,25.063z M222.555,27.563c-6.874,0-12.5,5.626-12.5,12.5
		c-0.02,1.381,1.084,2.516,2.465,2.535c1.381,0.02,2.516-1.084,2.535-2.465c0-0.024,0-0.047,0-0.071c0-4.172,3.328-7.5,7.5-7.5
		c1.381,0.02,2.516-1.084,2.535-2.465s-1.084-2.516-2.465-2.535C222.603,27.563,222.579,27.563,222.555,27.563z M208.421,111.794
		c-2.761,0.066-4.946,2.357-4.88,5.118c0.032,1.349,0.608,2.628,1.597,3.546c19.253,18.379,24.542,46.98,13.137,71.029
		c-11.405,24.049-36.896,38.051-63.311,34.773c-26.414-3.277-47.713-23.084-52.895-49.191c-0.492-2.717-3.095-4.521-5.812-4.029
		s-4.521,3.095-4.029,5.812c0.01,0.054,0.021,0.108,0.032,0.162c6.014,30.3,30.815,53.366,61.471,57.17
		c15.841,1.965,31.418-1.449,44.605-9.049l53.797,61.229c1.824,2.074,4.983,2.277,7.057,0.454c0.08-0.071,0.158-0.144,0.234-0.219
		l26.668-26.666c1.952-1.953,1.951-5.119-0.002-7.072c-0.054-0.053-0.108-0.106-0.164-0.157l-60.518-55.234
		c0.663-1.211,1.305-2.438,1.902-3.697c13.237-27.912,7.075-61.218-15.27-82.549C211.077,112.277,209.771,111.761,208.421,111.794z
		 M62.555,120.063c8.344,0,15,6.657,15,15s-6.657,15-15,15c-3.185,0-6.12-0.977-8.537-2.641c-0.002-0.001-0.002-0.003-0.004-0.004
		c-0.398-0.451-0.875-0.826-1.406-1.107c-3.101-2.739-5.053-6.742-5.053-11.248C47.555,126.72,54.212,120.063,62.555,120.063z
		 M157.555,120.063c5.031,0,9.699,1.472,13.609,4.002c0.462,0.491,1.019,0.884,1.637,1.154c5.939,4.56,9.754,11.732,9.754,19.844
		c0,13.866-11.134,25-25,25c-13.502,0-24.408-10.558-24.973-23.914c0.091-0.558,0.088-1.128-0.012-1.686
		C132.888,130.878,143.89,120.063,157.555,120.063z M62.555,122.563c-6.874,0-12.5,5.626-12.5,12.5
		c-0.02,1.381,1.084,2.516,2.465,2.535s2.516-1.084,2.535-2.465c0-0.024,0-0.047,0-0.071c0-4.172,3.328-7.5,7.5-7.5
		c1.381,0.02,2.516-1.084,2.535-2.465c0.02-1.381-1.084-2.516-2.465-2.535C62.603,122.563,62.579,122.563,62.555,122.563z
		 M157.555,127.563c-9.635,0-17.5,7.865-17.5,17.5c-0.02,1.381,1.084,2.516,2.465,2.535c1.381,0.02,2.516-1.084,2.535-2.465
		c0-0.024,0-0.047,0-0.071c0-6.933,5.567-12.5,12.5-12.5c1.381,0.02,2.516-1.084,2.535-2.465c0.02-1.381-1.084-2.516-2.465-2.535
		C157.603,127.563,157.579,127.563,157.555,127.563z M212.778,162.528c-1.379,0.022-2.48,1.156-2.461,2.535
		c0,26.407-21.355,47.762-47.762,47.762c-1.381-0.02-2.516,1.084-2.535,2.465c-0.02,1.381,1.084,2.516,2.465,2.535
		c0.024,0,0.047,0,0.071,0c29.109,0,52.762-23.652,52.762-52.762c0.019-1.381-1.084-2.516-2.465-2.535
		C212.828,162.528,212.803,162.528,212.778,162.528z M219.932,208.01l43.756,39.934l-18.584,17.27l-38.406-43.709
		C211.641,217.642,216.106,213.122,219.932,208.01z M267.393,251.327l7.928,7.234l-19.195,19.195l-7.719-8.785L267.393,251.327z"/>
</g>
</svg>