<?xml version="1.0" encoding="iso-8859-1"?>
<!-- Uploaded to: SVG Repo, www.svgrepo.com, Generator: SVG Repo Mixer Tools -->
<!DOCTYPE svg PUBLIC "-//W3C//DTD SVG 1.1//EN" "http://www.w3.org/Graphics/SVG/1.1/DTD/svg11.dtd">
<svg fill="#000000" height="800px" width="800px" version="1.1" id="Capa_1" xmlns="http://www.w3.org/2000/svg" xmlns:xlink="http://www.w3.org/1999/xlink" 
	 viewBox="0 0 507.349 507.349" xml:space="preserve">
<g>
	<path d="M253.67,95.184c17.5,0,31.738-14.237,31.738-31.736c0-17.5-14.238-31.739-31.738-31.739
		c-17.496,0-31.73,14.238-31.73,31.739C221.94,80.946,236.174,95.184,253.67,95.184z"/>
	<path d="M135.607,348.129h236.135c4.404,0,7.988-3.584,7.988-7.988v-43.65c0-4.404-3.584-7.988-7.988-7.988h-79.769
		c0.025-0.369,0.057-0.737,0.057-1.113v-86.676c0.023-0.241,0.037-0.485,0.037-0.732v-75.029l28.797-30.156
		c4.483-4.696,7.615-12.51,7.615-19.002v-62.59c0-7.28-5.923-13.203-13.203-13.203c-7.28,0-13.203,5.923-13.203,13.203v62.308
		c-0.077,0.331-0.33,0.964-0.5,1.25l-24.954,26.134h-45.887l-24.954-26.132c-0.172-0.29-0.426-0.923-0.502-1.252V13.203
		c0-7.28-5.923-13.203-13.203-13.203S178.87,5.923,178.87,13.203v62.59c0,6.491,3.133,14.305,7.617,19.002l28.795,30.156v75.029
		c0,0.576,0.072,1.135,0.197,1.673v85.735c0,0.376,0.031,0.744,0.057,1.113h-79.929c-4.404,0-7.988,3.584-7.988,7.988v43.65
		C127.619,344.545,131.203,348.129,135.607,348.129z M247.53,287.389v-79.986h12.449v79.986c0,0.376,0.031,0.744,0.057,1.113
		h-12.563C247.498,288.133,247.53,287.765,247.53,287.389z"/>
	<path d="M364.861,394.836c0,15.703,12.773,28.477,28.474,28.477c15.698,0,28.469-12.774,28.469-28.477
		c0-15.702-12.771-28.476-28.469-28.476C377.634,366.36,364.861,379.134,364.861,394.836z"/>
	<path d="M453.072,484.975l-26.902-51.57c-2.07-3.971-6.143-6.438-10.627-6.438c-0.192,0-42.614,0.013-42.762,0.024
		c-4.196,0.25-7.946,2.657-9.904,6.413l-26.902,51.57c-3.055,5.855-0.776,13.104,5.077,16.156c1.466,0.766,3.036,1.213,4.666,1.329
		c0.291,0.021,0.581,0.032,0.87,0.032c4.48,0,8.551-2.468,10.622-6.439l7.775-14.904v20.294c0,3.256,2.649,5.905,5.906,5.905h46.543
		c3.258,0,5.907-2.649,5.907-5.905v-21.671l8.493,16.281c2.07,3.972,6.141,6.439,10.623,6.439c0.29,0,0.579-0.011,0.868-0.031
		c1.631-0.117,3.201-0.565,4.666-1.329C453.846,498.08,456.125,490.832,453.072,484.975z"/>
	<path d="M224.061,394.836c0,15.703,12.773,28.477,28.474,28.477c15.698,0,28.47-12.774,28.47-28.477
		c0-15.702-12.772-28.476-28.47-28.476C236.834,366.36,224.061,379.134,224.061,394.836z"/>
	<path d="M285.371,433.405c-2.07-3.971-6.143-6.438-10.627-6.438c-0.192,0-42.615,0.013-42.763,0.024
		c-4.197,0.25-7.947,2.657-9.903,6.413l-26.902,51.57c-3.055,5.855-0.776,13.104,5.077,16.156c1.466,0.766,3.036,1.213,4.665,1.329
		c0.291,0.021,0.581,0.032,0.871,0.032c4.48,0,8.551-2.468,10.622-6.439l7.775-14.905v20.295c0,3.256,2.649,5.905,5.906,5.905
		h46.542c3.258,0,5.907-2.649,5.907-5.905v-21.671l8.493,16.281c2.07,3.972,6.141,6.439,10.624,6.439
		c0.29,0,0.579-0.011,0.868-0.031c1.631-0.117,3.201-0.565,4.666-1.329c5.855-3.053,8.133-10.301,5.079-16.157L285.371,433.405z"/>
	<path d="M111.637,423.313c15.698,0,28.47-12.774,28.47-28.477c0-15.702-12.771-28.476-28.47-28.476
		c-15.7,0-28.473,12.773-28.473,28.476C83.164,410.539,95.937,423.313,111.637,423.313z"/>
	<path d="M144.473,433.405c-2.07-3.971-6.143-6.438-10.627-6.438c-0.192,0-42.875,0.03-42.93,0.034l0,0
		c-4.129,0.303-7.805,2.697-9.736,6.403l-26.902,51.57c-3.055,5.855-0.776,13.104,5.077,16.156c1.466,0.766,3.037,1.213,4.666,1.329
		c0.291,0.021,0.581,0.032,0.87,0.032c4.48,0,8.551-2.468,10.622-6.439l7.775-14.904v20.294c0,3.256,2.649,5.905,5.906,5.905h46.543
		c3.257,0,5.906-2.649,5.906-5.905v-21.673l8.494,16.283c2.07,3.972,6.141,6.439,10.623,6.439c0.29,0,0.579-0.011,0.868-0.031
		c1.632-0.117,3.202-0.565,4.667-1.33c2.836-1.479,4.926-3.974,5.885-7.025c0.96-3.052,0.673-6.294-0.807-9.131L144.473,433.405z"/>
</g>
</svg>