<?xml version="1.0" encoding="iso-8859-1"?>
<!-- Uploaded to: SVG Repo, www.svgrepo.com, Generator: SVG Repo Mixer Tools -->
<svg version="1.1" id="Layer_1" xmlns="http://www.w3.org/2000/svg" xmlns:xlink="http://www.w3.org/1999/xlink" 
	 viewBox="0 0 512 512" xml:space="preserve">
<rect x="164.804" y="33.906" style="fill:#FFCF70;" width="335.971" height="401.549"/>
<rect x="259.82" y="78.799" style="fill:#ECF0F1;" width="196.061" height="311.751"/>
<g>
	<rect x="279.293" y="20.435" style="fill:#0BBBDA;" width="157.127" height="58.361"/>
	<rect x="11.223" y="20.213" style="fill:#0BBBDA;" width="308.642" height="56.117"/>
	<rect x="11.223" y="435.668" style="fill:#0BBBDA;" width="308.642" height="56.117"/>
</g>
<path style="fill:#FFBAA8;" d="M190.571,256c0.056,0.067,0.123,0.135,0.191,0.202l-25.219,35.241l-25.219-35.241
	c0.067-0.067,0.135-0.135,0.191-0.202c-30.011-32.536-68.687-73.12-91.953-110.202c25.286,2.492,27.093,22.189,55.769,22.189
	c30.606,0,30.606-22.447,61.201-22.447c30.617,0,30.617,22.447,61.223,22.447c28.676,0,30.483-19.708,55.78-22.2
	C259.281,182.88,220.594,223.464,190.571,256z"/>
<g>
	<path style="fill:#ECF0F1;" d="M190.762,256.202c51.291,55.578,127.654,134.557,109.461,179.461H30.863
		C12.67,390.759,89.045,311.78,140.324,256.202l25.219,35.241L190.762,256.202z"/>
	<path style="fill:#ECF0F1;" d="M48.562,145.798C32.064,119.513,23.31,94.99,30.863,76.337h269.36
		c7.553,18.653-1.19,43.176-17.688,69.45c-25.297,2.492-27.104,22.2-55.78,22.2c-30.606,0-30.606-22.447-61.223-22.447
		c-30.595,0-30.595,22.447-61.201,22.447C75.655,167.987,73.848,148.29,48.562,145.798z"/>
</g>
<polygon style="fill:#FFBAA8;" points="95.96,435.666 165.544,351.491 235.129,435.666 "/>
<g>
	<path style="fill:#231F20;" d="M327.726,152.63h59.906c5.625,0,10.653-3.99,11.453-9.558c0.998-6.937-4.358-12.889-11.103-12.889
		h-59.906c-5.625,0-10.653,3.99-11.453,9.558C315.625,146.678,320.981,152.63,327.726,152.63z"/>
	<path style="fill:#231F20;" d="M303.783,197.523h11.434c5.625,0,10.653-3.99,11.453-9.558c0.998-6.937-4.358-12.889-11.103-12.889
		h-11.434c-5.625,0-10.653,3.99-11.453,9.558C291.682,191.571,297.038,197.523,303.783,197.523z"/>
	<path style="fill:#231F20;" d="M365.194,175.076h-14.328c-5.625,0-10.653,3.99-11.453,9.558
		c-0.998,6.937,4.358,12.889,11.103,12.889h14.328c5.625,0,10.653-3.99,11.453-9.558
		C377.295,181.027,371.939,175.076,365.194,175.076z"/>
	<path style="fill:#231F20;" d="M411.925,175.076H400.49c-5.625,0-10.653,3.99-11.453,9.558
		c-0.998,6.937,4.358,12.889,11.103,12.889h11.434c5.625,0,10.653-3.99,11.453-9.558
		C424.027,181.027,418.671,175.076,411.925,175.076z"/>
	<path style="fill:#231F20;" d="M303.783,242.416h11.434c5.625,0,10.653-3.99,11.453-9.558c0.998-6.937-4.358-12.889-11.103-12.889
		h-11.434c-5.625,0-10.653,3.99-11.453,9.558C291.682,236.465,297.038,242.416,303.783,242.416z"/>
	<path style="fill:#231F20;" d="M365.194,219.97h-14.328c-5.625,0-10.653,3.99-11.453,9.558
		c-0.998,6.937,4.358,12.889,11.103,12.889h14.328c5.625,0,10.653-3.99,11.453-9.558C377.295,225.92,371.939,219.97,365.194,219.97z
		"/>
	<path style="fill:#231F20;" d="M411.925,219.97H400.49c-5.625,0-10.653,3.99-11.453,9.558c-0.998,6.937,4.358,12.889,11.103,12.889
		h11.434c5.625,0,10.653-3.99,11.453-9.558C424.027,225.92,418.671,219.97,411.925,219.97z"/>
	<path style="fill:#231F20;" d="M326.791,276.086c0-6.198-5.025-11.223-11.223-11.223h-11.785c-6.199,0-11.223,5.026-11.223,11.223
		c0,6.198,5.025,11.223,11.223,11.223h11.785C321.767,287.31,326.791,282.284,326.791,276.086z"/>
	<path style="fill:#231F20;" d="M365.194,264.863h-14.678c-6.199,0-11.223,5.026-11.223,11.223c0,6.198,5.025,11.223,11.223,11.223
		h14.678c6.199,0,11.223-5.026,11.223-11.223C376.418,269.889,371.393,264.863,365.194,264.863z"/>
	<path style="fill:#231F20;" d="M411.925,264.863H400.14c-6.199,0-11.223,5.026-11.223,11.223c0,6.198,5.025,11.223,11.223,11.223
		h11.785c6.199,0,11.223-5.026,11.223-11.223C423.148,269.889,418.123,264.863,411.925,264.863z"/>
	<path style="fill:#231F20;" d="M387.982,309.757h-60.256c-6.199,0-11.223,5.026-11.223,11.223c0,6.198,5.025,11.223,11.223,11.223
		h60.256c6.199,0,11.223-5.026,11.223-11.223C399.205,314.782,394.181,309.757,387.982,309.757z"/>
	<path style="fill:#231F20;" d="M500.777,22.68h-53.136v-2.245c0-6.198-5.025-11.223-11.223-11.223L11.223,8.994
		C5.025,8.994,0,14.02,0,20.218v56.117c0,6.199,5.025,11.223,11.223,11.223h5.788c-1.136,17.712,6.154,38.889,22.045,64.207
		c0.001,0.001,0.002,0.002,0.003,0.004c21.732,34.634,56.781,72.486,84.926,102.884c-0.002,1.012-0.003,1.681-0.007,2.694
		c-0.004,0.004-0.009,0.009-0.012,0.013C74.461,310.829,14.073,376.066,17.047,424.442h-5.824C5.025,424.442,0,429.467,0,435.666
		v56.117c0,6.199,5.025,11.223,11.223,11.223h308.642c6.199,0,11.223-5.025,11.223-11.223v-45.111h169.688
		c6.199,0,11.223-5.025,11.223-11.223V33.904C512,27.706,506.975,22.68,500.777,22.68z M291.556,424.439H240.41l-64.088-77.525
		v-51.248l15.552-21.733c25.241,27.26,53.591,57.999,73.953,87.354C284.608,388.365,293.231,409.553,291.556,424.439z
		 M207.063,257.296c-0.004-0.004-0.008-0.009-0.012-0.013c-0.002-0.964-0.003-1.603-0.006-2.567
		c13.04-14.08,27.562-29.76,41.557-45.98v94.474C234.952,287.416,220.602,271.917,207.063,257.296z M165.544,369.107l45.742,55.333
		h-91.485L165.544,369.107z M271.048,330.492V181.444c7.747-9.99,14.891-19.962,20.987-29.682c0.001-0.002,0.003-0.004,0.004-0.007
		c15.16-24.145,22.49-44.529,22.143-61.735H444.66v289.31H302.724C294.987,363.53,283.863,347.033,271.048,330.492z M425.194,67.574
		h-94.105V31.659h94.105V67.574z M22.447,31.441h286.195v33.67H22.447V31.441z M55.404,135.496l0.003-0.008
		C43.516,115.59,38.201,99.524,39.536,87.559h252.016c1.341,11.969-3.97,28.029-15.86,47.917l0.003,0.008
		c-11.473,2.338-18.871,7.751-24.972,12.226c-7.164,5.256-12.34,9.052-23.967,9.052s-16.805-3.796-23.969-9.048
		c-8.14-5.969-18.27-13.398-37.255-13.398c-18.971,0-29.097,7.428-37.232,13.396c-7.164,5.255-12.339,9.05-23.969,9.05
		c-11.631,0-16.807-3.796-23.971-9.048C74.263,143.242,66.869,137.834,55.404,135.496z M84.199,175.79
		c5.435,2.043,11.964,3.419,20.132,3.419c18.98,0,29.108-7.429,37.246-13.398c7.16-5.253,12.334-9.048,23.955-9.048
		c11.636,0,16.815,3.797,23.982,9.052c8.138,5.967,18.266,13.395,37.242,13.395c8.177,0,14.713-1.379,20.153-3.428
		c-17.896,22.182-38.471,44.398-56.244,63.588c-2.84,3.065-25.121,32.787-25.121,32.787s-22.304-29.746-25.155-32.826
		C122.636,220.156,102.081,197.953,84.199,175.79z M65.239,361.32c20.363-29.365,48.727-60.118,73.972-87.386l14.663,20.49v53.42
		c0,0.047,0.007,0.093,0.007,0.14L90.677,424.44H39.531C37.856,409.559,46.473,388.382,65.239,361.32z M308.642,480.559H22.447
		v-33.67h286.195V480.559z M489.553,424.225H314.053c0.412-7.148-0.542-14.659-2.649-22.447h144.479
		c6.199,0,11.223-5.025,11.223-11.223V78.797c0-6.199-5.025-11.223-11.223-11.223h-8.242V45.127h41.912L489.553,424.225
		L489.553,424.225z"/>
</g>
</svg>